<svg xmlns="http://www.w3.org/2000/svg" viewBox="0 0 500 500" width="500" height="500">
  <path
    id="epicycle-path"
    d="M 384.42 250.00 L 392.59 265.90 L 400.20 281.69 L 407.22 297.26 L 413.62 312.50 L 419.37 327.30 L 424.46 341.55 L 428.86 355.17 L 432.55 368.04 L 435.52 380.09 L 437.75 391.23 L 439.25 401.37 L 440.00 410.46 L 440.00 418.42 L 439.25 425.19 L 437.75 430.74 L 435.52 435.02 L 432.55 438.00 L 428.86 439.67 L 424.46 440.00 L 419.37 439.00 L 413.62 436.68 L 407.22 433.04 L 400.20 428.12 L 392.59 421.95 L 384.42 414.58 L 375.71 406.05 L 366.51 396.43 L 356.85 385.78 L 346.77 374.18 L 336.30 361.70 L 325.50 348.45 L 314.39 334.50 L 303.03 319.96 L 291.47 304.93 L 279.74 289.51 L 267.89 273.82 L 255.97 257.96 L 244.03 242.04 L 232.11 226.18 L 220.26 210.49 L 208.53 195.07 L 196.97 180.04 L 185.61 165.50 L 174.50 151.55 L 163.70 138.30 L 153.23 125.82 L 143.15 114.22 L 133.49 103.57 L 124.29 93.95 L 115.58 85.42 L 107.41 78.05 L 99.80 71.88 L 92.78 66.96 L 86.38 63.32 L 80.63 61.00 L 75.54 60.00 L 71.14 60.33 L 67.45 62.00 L 64.48 64.98 L 62.25 69.26 L 60.75 74.81 L 60.00 81.58 L 60.00 89.54 L 60.75 98.63 L 62.25 108.77 L 64.48 119.91 L 67.45 131.96 L 71.14 144.83 L 75.54 158.45 L 80.63 172.70 L 86.38 187.50 L 92.78 202.74 L 99.80 218.31 L 107.41 234.10 L 115.58 250.00 L 124.29 265.90 L 133.49 281.69 L 143.15 297.26 L 153.23 312.50 L 163.70 327.30 L 174.50 341.55 L 185.61 355.17 L 196.97 368.04 L 208.53 380.09 L 220.26 391.23 L 232.11 401.37 L 244.03 410.46 L 255.97 418.42 L 267.89 425.19 L 279.74 430.74 L 291.47 435.02 L 303.03 438.00 L 314.39 439.67 L 325.50 440.00 L 336.30 439.00 L 346.77 436.68 L 356.85 433.04 L 366.51 428.12 L 375.71 421.95 L 384.42 414.58 L 392.59 406.05 L 400.20 396.43 L 407.22 385.78 L 413.62 374.18 L 419.37 361.70 L 424.46 348.45 L 428.86 334.50 L 432.55 319.96 L 435.52 304.93 L 437.75 289.51 L 439.25 273.82 L 440.00 257.96 L 440.00 242.04 L 439.25 226.18 L 437.75 210.49 L 435.52 195.07 L 432.55 180.04 L 428.86 165.50 L 424.46 151.55 L 419.37 138.30 L 413.62 125.82 L 407.22 114.22 L 400.20 103.57 L 392.59 93.95 L 384.42 85.42 L 375.71 78.05 L 366.51 71.88 L 356.85 66.96 L 346.77 63.32 L 336.30 61.00 L 325.50 60.00 L 314.39 60.33 L 303.03 62.00 L 291.47 64.98 L 279.74 69.26 L 267.89 74.81 L 255.97 81.58 L 244.03 89.54 L 232.11 98.63 L 220.26 108.77 L 208.53 119.91 L 196.97 131.96 L 185.61 144.83 L 174.50 158.45 L 163.70 172.70 L 153.23 187.50 L 143.15 202.74 L 133.49 218.31 L 124.29 234.10 L 115.58 250.00 L 107.41 265.90 L 99.80 281.69 L 92.78 297.26 L 86.38 312.50 L 80.63 327.30 L 75.54 341.55 L 71.14 355.17 L 67.45 368.04 L 64.48 380.09 L 62.25 391.23 L 60.75 401.37 L 60.00 410.46 L 60.00 418.42 L 60.75 425.19 L 62.25 430.74 L 64.48 435.02 L 67.45 438.00 L 71.14 439.67 L 75.54 440.00 L 80.63 439.00 L 86.38 436.68 L 92.78 433.04 L 99.80 428.12 L 107.41 421.95 L 115.58 414.58 L 124.29 406.05 L 133.49 396.43 L 143.15 385.78 L 153.23 374.18 L 163.70 361.70 L 174.50 348.45 L 185.61 334.50 L 196.97 319.96 L 208.53 304.93 L 220.26 289.51 L 232.11 273.82 L 244.03 257.96 L 255.97 242.04 L 267.89 226.18 L 279.74 210.49 L 291.47 195.07 L 303.03 180.04 L 314.39 165.50 L 325.50 151.55 L 336.30 138.30 L 346.77 125.82 L 356.85 114.22 L 366.51 103.57 L 375.71 93.95 L 384.42 85.42 L 392.59 78.05 L 400.20 71.88 L 407.22 66.96 L 413.62 63.32 L 419.37 61.00 L 424.46 60.00 L 428.86 60.33 L 432.55 62.00 L 435.52 64.98 L 437.75 69.26 L 439.25 74.81 L 440.00 81.58 L 440.00 89.54 L 439.25 98.63 L 437.75 108.77 L 435.52 119.91 L 432.55 131.96 L 428.86 144.83 L 424.46 158.45 L 419.37 172.70 L 413.62 187.50 L 407.22 202.74 L 400.20 218.31 L 392.59 234.10 L 384.42 250.00 L 375.71 265.90 L 366.51 281.69 L 356.85 297.26 L 346.77 312.50 L 336.30 327.30 L 325.50 341.55 L 314.39 355.17 L 303.03 368.04 L 291.47 380.09 L 279.74 391.23 L 267.89 401.37 L 255.97 410.46 L 244.03 418.42 L 232.11 425.19 L 220.26 430.74 L 208.53 435.02 L 196.97 438.00 L 185.61 439.67 L 174.50 440.00 L 163.70 439.00 L 153.23 436.68 L 143.15 433.04 L 133.49 428.12 L 124.29 421.95 L 115.58 414.58 L 107.41 406.05 L 99.80 396.43 L 92.78 385.78 L 86.38 374.18 L 80.63 361.70 L 75.54 348.45 L 71.14 334.50 L 67.45 319.96 L 64.48 304.93 L 62.25 289.51 L 60.75 273.82 L 60.00 257.96 L 60.00 242.04 L 60.75 226.18 L 62.25 210.49 L 64.48 195.07 L 67.45 180.04 L 71.14 165.50 L 75.54 151.55 L 80.63 138.30 L 86.38 125.82 L 92.78 114.22 L 99.80 103.57 L 107.41 93.95 L 115.58 85.42 L 124.29 78.05 L 133.49 71.88 L 143.15 66.96 L 153.23 63.32 L 163.70 61.00 L 174.50 60.00 L 185.61 60.33 L 196.97 62.00 L 208.53 64.98 L 220.26 69.26 L 232.11 74.81 L 244.03 81.58 L 255.97 89.54 L 267.89 98.63 L 279.74 108.77 L 291.47 119.91 L 303.03 131.96 L 314.39 144.83 L 325.50 158.45 L 336.30 172.70 L 346.77 187.50 L 356.85 202.74 L 366.51 218.31 L 375.71 234.10 Z"
    fill="none"
    stroke="#7c3aed"
    stroke-width="2.5"
  />
</svg>